<svg width="35" height="27" viewBox="0 0 35 27" fill="none" xmlns="http://www.w3.org/2000/svg">
<path d="M12.0898 0L25.3912 26.8041C25.4507 26.9239 25.5748 27 25.7109 27H34.0445C34.3067 27 34.4786 26.7317 34.3645 26.5007L21.3661 0.196402C21.3067 0.0763016 21.1824 0 21.0461 0H12.0898Z" fill="url(#paint0_linear_137_131)"/>
<path d="M0.400391 21.3776H17.7396C17.8756 21.3776 17.9997 21.4536 18.0592 21.5733L20.5076 26.5001C20.6224 26.7311 20.4505 27 20.1879 27H3.47216C3.33715 27 3.21379 26.9251 3.15378 26.8068L0.400391 21.3776Z" fill="url(#paint1_linear_137_131)"/>
<path d="M0.400391 21.3776L12.0898 0L16.2461 8.3753C16.2966 8.47711 16.2934 8.5966 16.2374 8.69563L9.16888 21.1982C9.10628 21.3089 8.98717 21.3776 8.85787 21.3776H0.400391Z" fill="url(#paint2_linear_137_131)"/>
<defs>
<linearGradient id="paint0_linear_137_131" x1="7.95764" y1="0.00739518" x2="16.7436" y2="30.0208" gradientUnits="userSpaceOnUse">
<stop stop-color="#5065C5"/>
<stop offset="1" stop-color="#6600D8"/>
</linearGradient>
<linearGradient id="paint1_linear_137_131" x1="0.401036" y1="13.4998" x2="34.4005" y2="13.4998" gradientUnits="userSpaceOnUse">
<stop stop-color="#6600D8"/>
<stop offset="1" stop-color="#5065C5"/>
</linearGradient>
<linearGradient id="paint2_linear_137_131" x1="12.6605" y1="6.60295" x2="5.78254" y2="20.6307" gradientUnits="userSpaceOnUse">
<stop stop-color="#3F51A9"/>
<stop offset="0.507" stop-color="#6600D8"/>
<stop offset="0.9955" stop-color="#3F51A9"/>
</linearGradient>
</defs>
</svg>
