<svg width="161" height="40" viewBox="0 0 161 40" fill="none" xmlns="http://www.w3.org/2000/svg">
<path d="M16.6256 0.799316L35.5439 38.9222C35.6284 39.0926 35.805 39.2008 35.9986 39.2008H47.8512C48.2241 39.2008 48.4687 38.8192 48.3063 38.4907L29.819 1.07865C29.7346 0.907838 29.5578 0.799316 29.3639 0.799316H16.6256Z" fill="url(#paint0_linear_137_166)"/>
<path d="M0 31.2041H24.6611C24.8546 31.2041 25.0311 31.3122 25.1157 31.4825L28.598 38.4897C28.7613 38.8183 28.5167 39.2008 28.1434 39.2008H4.36891C4.17688 39.2008 4.00144 39.0943 3.91607 38.926L0 31.2041Z" fill="url(#paint1_linear_137_166)"/>
<path d="M0 31.2041L16.6256 0.799316L22.537 12.7113C22.6088 12.8561 22.6042 13.0261 22.5246 13.1669L12.4712 30.9489C12.3822 31.1064 12.2128 31.2041 12.0289 31.2041H0Z" fill="url(#paint2_linear_137_166)"/>
<path d="M66.1684 26.6906V23.5267H81.0023V26.6906H66.1684ZM76.0199 9.91353L86.2111 31.6831H82.2196L72.9625 11.3648H74.4063L65.1493 31.6831H61.1577L71.3489 9.91353H76.0199Z" fill="white"/>
<path d="M87.61 15.2543H91.2902L92.2527 21.2337V31.6831H88.5725V20.508L87.61 15.2543ZM100.377 15.1382V18.4472C99.9621 18.3311 99.5092 18.244 99.0185 18.1859C98.5278 18.1279 98.0654 18.0989 97.6314 18.0989C96.5934 18.0989 95.6686 18.3311 94.8571 18.7955C94.0456 19.2599 93.4039 19.9565 92.9321 20.8854C92.4791 21.7949 92.2527 22.9172 92.2527 24.2524L91.4034 23.1784C91.4789 22.0174 91.6676 20.9337 91.9696 19.9275C92.2904 18.9019 92.7245 18.0118 93.2718 17.2571C93.838 16.5024 94.5268 15.9122 95.3383 15.4865C96.1499 15.0608 97.0935 14.848 98.1692 14.848C98.5467 14.848 98.9336 14.877 99.3299 14.935C99.7262 14.9737 100.075 15.0415 100.377 15.1382Z" fill="white"/>
<path d="M102.695 9.33301H106.375V20.9144L105.809 21.9884V25.0361L106.375 26.2552V31.6831H102.695V9.33301ZM104.903 23.4687C105.261 21.7271 105.856 20.2178 106.686 18.9406C107.517 17.6441 108.536 16.6379 109.744 15.9219C110.97 15.2059 112.329 14.848 113.82 14.848C115.387 14.848 116.774 15.2156 117.982 15.9509C119.189 16.6669 120.133 17.6732 120.812 18.9697C121.492 20.2468 121.832 21.7465 121.832 23.4687C121.832 25.1716 121.492 26.6712 120.812 27.9677C120.133 29.2642 119.189 30.2801 117.982 31.0155C116.774 31.7314 115.387 32.0894 113.82 32.0894C112.329 32.0894 110.97 31.7314 109.744 31.0155C108.536 30.2995 107.517 29.2932 106.686 27.9967C105.856 26.7003 105.261 25.1909 104.903 23.4687ZM118.095 23.4687C118.095 22.3657 117.868 21.3982 117.415 20.5661C116.981 19.7147 116.377 19.0567 115.604 18.5923C114.83 18.1085 113.943 17.8667 112.943 17.8667C111.942 17.8667 110.999 18.1085 110.112 18.5923C109.243 19.0567 108.479 19.7147 107.819 20.5661C107.158 21.3982 106.62 22.3657 106.205 23.4687C106.62 24.5717 107.158 25.5489 107.819 26.4003C108.479 27.2324 109.243 27.8903 110.112 28.3741C110.999 28.8385 111.942 29.0707 112.943 29.0707C113.943 29.0707 114.83 28.8385 115.604 28.3741C116.377 27.8903 116.981 27.2324 117.415 26.4003C117.868 25.5489 118.095 24.5717 118.095 23.4687Z" fill="white"/>
<path d="M131.603 32.0894C130.131 32.0894 128.876 31.7798 127.838 31.1606C126.819 30.5414 126.036 29.6512 125.488 28.4902C124.941 27.3292 124.668 25.9456 124.668 24.3395V15.2543H128.348V23.7589C128.348 25.4618 128.725 26.7583 129.48 27.6484C130.254 28.5192 131.358 28.9546 132.792 28.9546C133.83 28.9546 134.717 28.7224 135.453 28.258C136.208 27.7936 136.793 27.1356 137.208 26.2842C137.624 25.4134 137.831 24.4072 137.831 23.2655L139.105 23.9912C138.954 25.6747 138.539 27.126 137.859 28.3451C137.18 29.5448 136.302 30.4736 135.227 31.1316C134.151 31.7701 132.943 32.0894 131.603 32.0894ZM138.765 31.6831L137.831 25.7617V15.2543H141.511V26.3423L142.446 31.6831H138.765Z" fill="white"/>
<path d="M144.722 31.6831V28.9546L157.235 17.2281L159.528 18.1569H144.835V15.2543H160.943V17.9828L148.459 29.7093L146.477 28.7805H161V31.6831H144.722Z" fill="white"/>
<defs>
<linearGradient id="paint0_linear_137_166" x1="10.7485" y1="0.809834" x2="23.2445" y2="43.4972" gradientUnits="userSpaceOnUse">
<stop stop-color="#5065C5"/>
<stop offset="1" stop-color="#6600D8"/>
</linearGradient>
<linearGradient id="paint1_linear_137_166" x1="0.000918286" y1="19.9997" x2="48.3575" y2="19.9997" gradientUnits="userSpaceOnUse">
<stop stop-color="#6600D8"/>
<stop offset="1" stop-color="#5065C5"/>
</linearGradient>
<linearGradient id="paint2_linear_137_166" x1="17.4373" y1="10.1905" x2="7.6549" y2="30.1418" gradientUnits="userSpaceOnUse">
<stop stop-color="#3F51A9"/>
<stop offset="0.507" stop-color="#6600D8"/>
<stop offset="0.9955" stop-color="#3F51A9"/>
</linearGradient>
</defs>
</svg>
