<svg width="18" height="19" viewBox="0 0 18 19" fill="none" xmlns="http://www.w3.org/2000/svg">
<g id="mdi:user">
<path id="Vector" d="M9 4C9.79565 4 10.5587 4.31607 11.1213 4.87868C11.6839 5.44129 12 6.20435 12 7C12 7.79565 11.6839 8.55871 11.1213 9.12132C10.5587 9.68393 9.79565 10 9 10C8.20435 10 7.44129 9.68393 6.87868 9.12132C6.31607 8.55871 6 7.79565 6 7C6 6.20435 6.31607 5.44129 6.87868 4.87868C7.44129 4.31607 8.20435 4 9 4ZM9 11.5C12.315 11.5 15 12.8425 15 14.5V16H3V14.5C3 12.8425 5.685 11.5 9 11.5Z" fill="white"/>
</g>
</svg>
