<svg width="30" height="30" viewBox="0 0 30 30" fill="none" xmlns="http://www.w3.org/2000/svg">
<g id="ph:users">
<path id="Vector" d="M13.7403 18.5063C14.9967 17.6698 15.9507 16.4512 16.461 15.0306C16.9713 13.61 17.0109 12.0629 16.574 10.6181C16.137 9.17322 15.2467 7.90735 14.0347 7.00766C12.8226 6.10796 11.3532 5.62219 9.84378 5.62219C8.33431 5.62219 6.86492 6.10796 5.65288 7.00766C4.44085 7.90735 3.55053 9.17322 3.11357 10.6181C2.67662 12.0629 2.71623 13.61 3.22655 15.0306C3.73687 16.4512 4.69081 17.6698 5.94729 18.5063C3.67443 19.344 1.73335 20.8941 0.4137 22.9254C0.344343 23.0285 0.296168 23.1444 0.271974 23.2662C0.247781 23.3881 0.248052 23.5135 0.272771 23.6353C0.297491 23.7571 0.346166 23.8727 0.415967 23.9755C0.485768 24.0783 0.575302 24.1661 0.679367 24.234C0.783431 24.3019 0.899948 24.3484 1.02215 24.3709C1.14434 24.3933 1.26979 24.3912 1.39118 24.3648C1.51257 24.3383 1.62749 24.288 1.72927 24.2167C1.83104 24.1455 1.91763 24.0547 1.98401 23.9497C2.83525 22.6404 4.00005 21.5646 5.37265 20.8198C6.74524 20.075 8.28214 19.6849 9.84378 19.6849C11.4054 19.6849 12.9423 20.075 14.3149 20.8198C15.6875 21.5646 16.8523 22.6404 17.7035 23.9497C17.841 24.154 18.0535 24.2961 18.2948 24.3451C18.5362 24.3941 18.7872 24.3461 18.9935 24.2115C19.1998 24.077 19.3449 23.8666 19.3974 23.626C19.4498 23.3853 19.4055 23.1337 19.2739 22.9254C17.9542 20.8941 16.0131 19.344 13.7403 18.5063ZM4.68753 12.6563C4.68753 11.6365 4.98994 10.6396 5.55651 9.79164C6.12309 8.9437 6.92838 8.28281 7.87057 7.89254C8.81275 7.50228 9.8495 7.40017 10.8497 7.59912C11.8499 7.79808 12.7687 8.28916 13.4898 9.01028C14.2109 9.73139 14.702 10.6501 14.901 11.6504C15.0999 12.6506 14.9978 13.6873 14.6075 14.6295C14.2173 15.5717 13.5564 16.377 12.7084 16.9436C11.8605 17.5101 10.8636 17.8125 9.84378 17.8125C8.47673 17.811 7.16612 17.2673 6.19947 16.3006C5.23282 15.334 4.68908 14.0233 4.68753 12.6563ZM29.3133 24.2227C29.1051 24.3585 28.8514 24.406 28.6081 24.3548C28.3649 24.3036 28.1519 24.1579 28.016 23.9497C27.1658 22.6396 26.0012 21.5633 24.6283 20.8188C23.2554 20.0744 21.718 19.6855 20.1563 19.6875C19.9076 19.6875 19.6692 19.5888 19.4934 19.413C19.3175 19.2371 19.2188 18.9987 19.2188 18.75C19.2188 18.5014 19.3175 18.2629 19.4934 18.0871C19.6692 17.9113 19.9076 17.8125 20.1563 17.8125C20.9156 17.8118 21.6654 17.6434 22.3521 17.3193C23.0388 16.9952 23.6455 16.5235 24.1287 15.9377C24.612 15.352 24.9599 14.6668 25.1476 13.931C25.3353 13.1953 25.3582 12.4271 25.2147 11.6815C25.0711 10.9358 24.7646 10.2311 24.3172 9.61762C23.8697 9.00415 23.2922 8.49709 22.626 8.13266C21.9598 7.76824 21.2214 7.55545 20.4634 7.5095C19.7055 7.46355 18.9468 7.58557 18.2414 7.86684C18.1264 7.91656 18.0026 7.94272 17.8774 7.94377C17.7521 7.94483 17.6278 7.92077 17.512 7.87301C17.3962 7.82524 17.2911 7.75475 17.203 7.66569C17.1149 7.57663 17.0455 7.47081 16.999 7.35449C16.9525 7.23816 16.9297 7.11369 16.9321 6.98843C16.9345 6.86316 16.962 6.73965 17.0129 6.62518C17.0638 6.51072 17.1372 6.40762 17.2286 6.32199C17.3201 6.23635 17.4278 6.16992 17.5453 6.12661C19.1596 5.48284 20.955 5.45967 22.5853 6.06158C24.2156 6.66348 25.5652 7.84781 26.3738 9.38608C27.1824 10.9244 27.3927 12.7076 26.964 14.3917C26.5354 16.0759 25.4983 17.5417 24.0528 18.5063C26.3256 19.344 28.2667 20.8941 29.5864 22.9254C29.7221 23.1337 29.7697 23.3873 29.7185 23.6306C29.6673 23.8739 29.5215 24.0869 29.3133 24.2227Z" fill="white"/>
</g>
</svg>
